<svg width="80" height="59" viewBox="0 0 80 59" fill="none" xmlns="http://www.w3.org/2000/svg">
<path d="M72.549 32.9025C72.9821 32.7868 73.2914 32.4052 73.3151 31.9579L73.3637 31.026C73.3894 30.5797 73.6992 30.2002 74.1319 30.0854C74.564 29.9707 75.0214 30.1471 75.265 30.5221L75.7714 31.3024C76.016 31.6795 76.4759 31.8558 76.9095 31.7381L77.8071 31.497C78.2423 31.3782 78.7042 31.5546 78.9488 31.9332C79.1939 32.3117 79.1661 32.805 78.8796 33.1532L78.2948 33.8779C78.076 34.1504 78.0108 34.5153 78.122 34.8468L72.1659 33.0061L72.549 32.9025Z" fill="#FFAA04"/>
<path d="M71.6482 33.1429L72.1657 33.0039L78.1193 34.836C78.1426 34.9224 78.1775 35.0053 78.2224 35.0826L78.7289 35.8619C78.974 36.2385 78.9482 36.7302 78.6652 37.0794C78.3816 37.4282 77.9056 37.5545 77.4866 37.3918L76.6193 37.0582C76.2014 36.8965 75.7268 37.0218 75.4438 37.369L74.8585 38.0933C74.5765 38.442 74.1024 38.5694 73.6835 38.4086C73.265 38.2479 72.9971 37.836 73.0204 37.3882L73.0689 36.4568C73.0926 36.009 72.8253 35.5971 72.4068 35.4364L71.539 35.1028C71.1256 34.9386 70.8628 34.5282 70.8876 34.0839C70.9124 33.6392 71.2186 33.2601 71.6482 33.1429Z" fill="#FFAA04"/>
<path d="M9.84583 3.89081C10.279 3.77507 10.5883 3.39349 10.612 2.94622L10.6605 2.01426C10.6863 1.568 10.9961 1.18844 11.4287 1.07372C11.8609 0.95899 12.3182 1.13537 12.5618 1.51038L13.0682 2.29072C13.3129 2.66774 13.7728 2.84413 14.2064 2.72637L15.104 2.48529C15.5391 2.36652 16.0011 2.54291 16.2457 2.92145C16.4908 3.3 16.463 3.79327 16.1765 4.14148L15.5917 4.86623C15.3729 5.13864 15.3077 5.50353 15.4189 5.83508L9.46274 3.99441L9.84583 3.89081Z" fill="#FFAA04"/>
<path d="M1.65833 35.9846C2.09145 35.8688 2.40076 35.4872 2.42451 35.04L2.47303 34.108C2.49881 33.6617 2.80861 33.2822 3.24124 33.1675C3.67335 33.0527 4.13074 33.2291 4.37434 33.6041L4.88075 34.3845C5.12536 34.7615 5.58527 34.9379 6.01891 34.8201L6.91649 34.579C7.35164 34.4603 7.81358 34.6367 8.05819 35.0152C8.30331 35.3937 8.27551 35.887 7.98895 36.2352L7.4042 36.96C7.18537 37.2324 7.12017 37.5973 7.23136 37.9288L1.27524 36.0882L1.65833 35.9846Z" fill="#FFAA04"/>
<path d="M8.949 4.13117L9.46653 3.99219L15.4201 5.82426C15.4434 5.91068 15.4782 5.99357 15.5232 6.07089L16.0296 6.85022C16.2748 7.22674 16.249 7.71849 15.966 8.06772C15.6824 8.41645 15.2063 8.5428 14.7874 8.38006L13.9201 8.0465C13.5021 7.88477 13.0276 8.01011 12.7445 8.35732L12.1593 9.08155C11.8773 9.43028 11.4032 9.55764 10.9842 9.39692C10.5658 9.2362 10.2979 8.8243 10.3212 8.37652L10.3697 7.44507C10.3934 6.99729 10.1261 6.58539 9.7076 6.42467L8.83983 6.09111C8.42641 5.92685 8.16361 5.51647 8.18837 5.07222C8.21314 4.62747 8.51941 4.24842 8.949 4.13117Z" fill="#FFAA04"/>
<path d="M0.761497 36.2249L1.27903 36.0859L7.23262 37.918C7.25587 38.0044 7.29074 38.0873 7.33572 38.1646L7.84213 38.944C8.08725 39.3205 8.06148 39.8122 7.77845 40.1615C7.49492 40.5102 7.01884 40.6365 6.59986 40.4738L5.7326 40.1402C5.31463 39.9785 4.84006 40.1039 4.55704 40.4511L3.97179 41.1753C3.68978 41.524 3.21571 41.6514 2.79674 41.4907C2.37827 41.33 2.11041 40.9181 2.13365 40.4703L2.18217 39.5388C2.20593 39.091 1.93857 38.6791 1.5201 38.5184L0.652331 38.1849C0.238915 38.0206 -0.0238927 37.6102 0.000871924 37.166C0.0256364 36.7212 0.331908 36.3422 0.761497 36.2249Z" fill="#FFAA04"/>
<path d="M43.3966 5.2043C43.11 4.85659 43.0817 4.36281 43.3268 3.98427C43.572 3.60572 44.0339 3.42934 44.4691 3.54861L48.8928 4.73782C49.0283 4.77117 49.1693 4.77623 49.3067 4.75197L55.2027 15.7929L55.2583 16.877C55.2821 17.3248 55.0147 17.7372 54.5957 17.8979C54.1773 18.0586 53.7022 17.9318 53.4202 17.5825L50.5384 14.023C50.2554 13.6763 49.7803 13.551 49.3628 13.7127L45.0866 15.3532C44.6677 15.5159 44.1916 15.3896 43.9086 15.0409C43.625 14.6921 43.5993 14.1999 43.8449 13.8234L46.3466 9.9783C46.5907 9.60228 46.5654 9.11154 46.2834 8.76281L43.3966 5.2043Z" fill="#FFAA04"/>
<path d="M50.0305 4.30498L52.5246 0.463954C52.7702 0.0924864 53.2261 -0.0798546 53.6557 0.0353764C54.0858 0.150607 54.3941 0.527635 54.4208 0.97188L54.6655 5.54675C54.6887 5.99504 54.998 6.37712 55.4311 6.49286L59.8549 7.67599C60.2885 7.79173 60.5983 8.17381 60.6216 8.62159C60.6453 9.06988 60.3775 9.48229 59.9585 9.6425L55.6828 11.283C55.2644 11.4437 54.9965 11.8561 55.0203 12.3039L55.2037 15.7937L49.3118 4.75277C49.6044 4.71385 49.8662 4.55061 50.0305 4.30498Z" fill="#FFAA04"/>
<path d="M23.9815 22.2378L31.6216 10.4747C32.1098 9.72213 33.0271 9.36987 33.8939 9.60184C34.7606 9.83433 35.3787 10.598 35.4252 11.4941L36.1591 25.5017C36.2061 26.3967 36.8242 27.1604 37.6899 27.3924L51.2386 31.0227C52.1059 31.2541 52.7255 32.0178 52.7725 32.9139C52.8195 33.8099 52.2838 34.6347 51.4459 34.9557L38.3505 39.9819C37.513 40.3033 36.9773 41.1271 37.0243 42.0232L37.6788 54.4934L23.0793 22.9904C23.4473 22.8337 23.7611 22.5719 23.9815 22.2378V22.2378Z" fill="#FFAA04"/>
<path d="M6.01174 22.7839C5.44873 22.087 5.39768 21.107 5.88539 20.3555C6.3731 19.604 7.28888 19.2512 8.15463 19.4822L21.7054 23.1119C22.1623 23.2307 22.6459 23.1882 23.075 22.9916L37.6745 54.4947L37.7568 56.0316C37.8043 56.9276 37.2691 57.7519 36.4317 58.0734C35.5937 58.3943 34.6446 58.1401 34.0806 57.4426L25.2538 46.5422C24.6893 45.8453 23.7401 45.591 22.9032 45.912L9.80728 50.9392C8.97034 51.2621 8.0202 51.0089 7.45516 50.312C6.89012 49.615 6.83807 48.6335 7.32628 47.8805L14.9674 36.1153C15.4556 35.3633 15.4041 34.3818 14.84 33.6849L6.01174 22.7839Z" fill="#FFAA04"/>
</svg>
